<svg xmlns:mydata="http://www.w3.org/2000/svg" mydata:contrastcolor="ffffff" mydata:template="Default" mydata:presentation="2.5" mydata:layouttype="undefined" mydata:specialfontid="undefined" mydata:id1="005" mydata:id2="125" mydata:companyname="0ldb0y4l1f3" mydata:companytagline="Live and Hack" version="1.1" xmlns="http://www.w3.org/2000/svg" xmlns:xlink="http://www.w3.org/1999/xlink" viewBox="146.29360465116278 106.2 259.8110465116279 255.20000000000002"><g fill="#275d38" fill-rule="none" stroke="none" stroke-width="1" stroke-linecap="butt" stroke-linejoin="miter" stroke-miterlimit="10" stroke-dasharray="" stroke-dashoffset="0" font-family="none" font-weight="none" font-size="none" text-anchor="none" style="mix-blend-mode: normal"><g data-paper-data="{&quot;isGlobalGroup&quot;:true,&quot;bounds&quot;:{&quot;x&quot;:153.47280120262155,&quot;y&quot;:115.00000000000001,&quot;width&quot;:243.0543975947569,&quot;height&quot;:240}}"><g data-paper-data="{&quot;isSecondaryText&quot;:true}" fill-rule="nonzero"><path d="M173.00126,354.63703v-10.47876h2.1936v8.56922h5.19203v1.90953z" data-paper-data="{&quot;glyphName&quot;:&quot;L&quot;,&quot;glyphIndex&quot;:0,&quot;firstGlyphOfWord&quot;:true,&quot;word&quot;:1}"></path><path d="M188.13489,354.63703v-10.47876h2.1936v10.47876z" data-paper-data="{&quot;glyphName&quot;:&quot;I&quot;,&quot;glyphIndex&quot;:1,&quot;word&quot;:1}"></path><path d="M201.97818,354.63703l-3.55078,-10.47876h2.33563l2.28828,7.35407l2.2725,-7.35407h2.2725l-3.55078,10.47876z" data-paper-data="{&quot;glyphName&quot;:&quot;V&quot;,&quot;glyphIndex&quot;:2,&quot;word&quot;:1}"></path><path d="M217.10014,354.63703v-10.47876h7.70125v1.83063h-5.57078v2.24094h5.12891v1.84641h-5.12891v2.6986h5.82328v1.86219z" data-paper-data="{&quot;glyphName&quot;:&quot;E&quot;,&quot;glyphIndex&quot;:3,&quot;lastGlyphOfWord&quot;:true,&quot;word&quot;:1}"></path><path d="M249.75213,346.50968h-0.01578l-1.34141,4.16625h2.66703zM252.35604,354.63703l-0.66281,-2.16203h-3.86641l-0.74172,2.16203h-2.31985l3.74016,-10.47876h2.54078l3.69281,10.47876z" data-paper-data="{&quot;glyphName&quot;:&quot;A&quot;,&quot;glyphIndex&quot;:4,&quot;firstGlyphOfWord&quot;:true,&quot;word&quot;:2}"></path><path d="M271.0648,354.63703l-4.48188,-7.03844v7.03844h-2.03578v-10.47876h2.31985l4.16625,6.7386v-6.7386h2.05156v10.47876z" data-paper-data="{&quot;glyphName&quot;:&quot;N&quot;,&quot;glyphIndex&quot;:5,&quot;word&quot;:2}"></path><path d="M287.03016,352.85375c0.9574,0 1.65177,-0.29721 2.08313,-0.89164c0.43135,-0.59443 0.64703,-1.48607 0.64703,-2.67492c0,-0.58917 -0.0526,-1.09417 -0.15781,-1.515c-0.10521,-0.42083 -0.27617,-0.76539 -0.51289,-1.03367c-0.23672,-0.26828 -0.53919,-0.46292 -0.90742,-0.58391c-0.36823,-0.12099 -0.81537,-0.18148 -1.34141,-0.18148h-1.62547v6.88063zM283.08484,354.63703v-10.47876h4.05578c0.7049,0 1.35719,0.11836 1.95688,0.35508c0.59969,0.23672 1.11258,0.57602 1.53867,1.01789c0.42609,0.44188 0.76013,0.97844 1.00211,1.60969c0.24198,0.63125 0.36297,1.34667 0.36297,2.14625c0,0.79958 -0.10784,1.52815 -0.32352,2.1857c-0.21568,0.65755 -0.52341,1.22042 -0.9232,1.68859c-0.39979,0.46818 -0.87849,0.83115 -1.43609,1.08891c-0.5576,0.25776 -1.17307,0.38664 -1.84641,0.38664z" data-paper-data="{&quot;glyphName&quot;:&quot;D&quot;,&quot;glyphIndex&quot;:6,&quot;lastGlyphOfWord&quot;:true,&quot;word&quot;:2}"></path><path d="M318.66038,354.63703v-4.70282h-4.08735v4.70282h-2.1936v-10.47876h2.1936v3.94531h4.08735v-3.94531h2.20938v10.47876z" data-paper-data="{&quot;glyphName&quot;:&quot;H&quot;,&quot;glyphIndex&quot;:7,&quot;firstGlyphOfWord&quot;:true,&quot;word&quot;:3}"></path><path d="M335.60716,346.50968h-0.01578l-1.34141,4.16625h2.66703zM338.21106,354.63703l-0.66281,-2.16203h-3.86641l-0.74172,2.16203h-2.31985l3.74016,-10.47876h2.54078l3.69281,10.47876z" data-paper-data="{&quot;glyphName&quot;:&quot;A&quot;,&quot;glyphIndex&quot;:8,&quot;word&quot;:3}"></path><path d="M358.16567,351.0389c-0.11573,0.59969 -0.29984,1.14151 -0.55234,1.62547c-0.2525,0.48396 -0.57076,0.89953 -0.95477,1.24672c-0.38401,0.34719 -0.82852,0.61547 -1.33352,0.80484c-0.505,0.18938 -1.0626,0.28406 -1.67281,0.28406c-0.68385,0 -1.323,-0.11573 -1.91742,-0.34719c-0.59443,-0.23146 -1.10732,-0.57865 -1.53867,-1.04156c-0.43135,-0.46292 -0.77065,-1.03367 -1.01789,-1.71227c-0.24724,-0.67859 -0.37086,-1.47029 -0.37086,-2.37508c0,-0.88375 0.1131,-1.6807 0.3393,-2.39086c0.2262,-0.71016 0.54971,-1.30984 0.97055,-1.79906c0.42083,-0.48922 0.93372,-0.86534 1.53867,-1.12836c0.60495,-0.26302 1.28091,-0.39453 2.02789,-0.39453c0.65229,0 1.24409,0.09732 1.77539,0.29195c0.5313,0.19464 0.98896,0.46292 1.37297,0.80484c0.38401,0.34193 0.68912,0.74435 0.91531,1.20727c0.2262,0.46292 0.3656,0.9574 0.4182,1.48344h-2.1936c-0.14729,-0.59969 -0.43135,-1.06524 -0.85219,-1.39664c-0.42083,-0.33141 -0.89427,-0.49711 -1.42031,-0.49711c-0.91531,0 -1.58865,0.32878 -2.02,0.98633c-0.43135,0.65755 -0.64703,1.55971 -0.64703,2.70649c0,1.16781 0.21305,2.07524 0.63914,2.72227c0.42609,0.64703 1.06524,0.97055 1.91742,0.97055c0.65229,0 1.1757,-0.17622 1.57024,-0.52867c0.39453,-0.35245 0.66544,-0.86008 0.81273,-1.52289z" data-paper-data="{&quot;glyphName&quot;:&quot;C&quot;,&quot;glyphIndex&quot;:9,&quot;word&quot;:3}"></path><path d="M374.33171,354.63703l-3.10891,-4.7186l-1.16781,1.15203v3.56656h-2.16203v-10.47876h2.16203v4.26094l4.00844,-4.26094h2.84063l-4.13469,4.13469l4.22938,6.34407z" data-paper-data="{&quot;glyphName&quot;:&quot;K&quot;,&quot;glyphIndex&quot;:10,&quot;lastGlyphOfWord&quot;:true,&quot;word&quot;:3}"></path></g><g data-paper-data="{&quot;isPrimaryText&quot;:true}" fill-rule="nonzero"><path d="M177.63348,327.85516c0,0.84927 -0.10857,1.65269 -0.32571,2.41028c-0.21714,0.75758 -0.52355,1.45968 -0.91923,2.10628c-0.39568,0.6466 -0.86374,1.22565 -1.40419,1.73714c-0.54044,0.51149 -1.13155,0.94819 -1.77333,1.31009c-0.64178,0.3619 -1.32457,0.63936 -2.04837,0.83238c-0.72381,0.19302 -1.46209,0.28952 -2.21485,0.28952h-6.78931c-0.76241,0 -1.50552,-0.09651 -2.22933,-0.28952c-0.72381,-0.19302 -1.4066,-0.47047 -2.04837,-0.83238c-0.64178,-0.3619 -1.23288,-0.7986 -1.77333,-1.31009c-0.54044,-0.51149 -1.00609,-1.09054 -1.39695,-1.73714c-0.39086,-0.6466 -0.69485,-1.34869 -0.912,-2.10628c-0.21714,-0.75758 -0.32571,-1.56101 -0.32571,-2.41028v-3.38742c0,-1.2739 0.23886,-2.44164 0.71657,-3.50323c0.47771,-1.06158 1.11708,-1.97599 1.91809,-2.74323c0.80101,-0.76724 1.72507,-1.36558 2.77218,-1.79504c1.04711,-0.42946 2.14006,-0.64419 3.27885,-0.64419h6.78931c0.75276,0 1.49104,0.09651 2.21485,0.28952c0.72381,0.19302 1.4066,0.47047 2.04837,0.83238c0.64178,0.3619 1.23288,0.7986 1.77333,1.31009c0.54044,0.51149 1.0085,1.09054 1.40419,1.73714c0.39568,0.6466 0.70209,1.34869 0.91923,2.10628c0.21714,0.75758 0.32571,1.56101 0.32571,2.41028zM173.84073,324.46774c0,-0.74311 -0.13511,-1.41866 -0.40533,-2.02666c-0.27022,-0.608 -0.62971,-1.12914 -1.07847,-1.56342c-0.44876,-0.43428 -0.96749,-0.76724 -1.55619,-0.99885c-0.5887,-0.23162 -1.20635,-0.3426 -1.85295,-0.33295h-6.78931c-0.6273,-0.00965 -1.23771,0.09892 -1.83123,0.32571c-0.59352,0.22679 -1.11949,0.55492 -1.5779,0.98438c-0.45841,0.42946 -0.82514,0.9506 -1.10019,1.56342c-0.27505,0.61282 -0.41257,1.29561 -0.41257,2.04837v3.38742c0,0.75276 0.13511,1.43314 0.40533,2.04114c0.27022,0.608 0.63212,1.12673 1.08571,1.55619c0.45359,0.42946 0.97714,0.76 1.57066,0.99162c0.59352,0.23162 1.21358,0.3426 1.86018,0.33295h6.78931c0.74311,0 1.41625,-0.12305 2.01942,-0.36914c0.60317,-0.24609 1.11708,-0.58628 1.54171,-1.02057c0.42463,-0.43428 0.75276,-0.95301 0.98438,-1.55619c0.23162,-0.60317 0.34743,-1.26184 0.34743,-1.97599zM172.20493,321.71727c0.14476,0.21232 0.24127,0.44152 0.28952,0.68762c0.04825,0.24609 0.04825,0.48736 0,0.72381c-0.04825,0.23644 -0.14235,0.45841 -0.28228,0.6659c-0.13994,0.20749 -0.32089,0.38362 -0.54286,0.52838l-10.16225,6.78931c-0.16406,0.12546 -0.33295,0.21232 -0.50666,0.26057c-0.17371,0.04825 -0.35225,0.07238 -0.53562,0.07238c-0.30882,0 -0.60317,-0.07238 -0.88304,-0.21714c-0.27987,-0.14476 -0.50666,-0.35225 -0.68038,-0.62247c-0.14476,-0.21232 -0.24127,-0.44152 -0.28952,-0.68762c-0.04825,-0.24609 -0.05067,-0.48736 -0.00724,-0.72381c0.04343,-0.23644 0.1327,-0.45841 0.26781,-0.6659c0.13511,-0.20749 0.31365,-0.38362 0.53562,-0.52838l10.1912,-6.78931c0.21232,-0.14476 0.44152,-0.24127 0.68762,-0.28952c0.24609,-0.04825 0.48736,-0.04825 0.72381,0c0.23644,0.04825 0.45841,0.13994 0.6659,0.27505c0.20749,0.13511 0.38362,0.30882 0.52838,0.52114z" data-paper-data="{&quot;glyphName&quot;:&quot;0&quot;,&quot;glyphIndex&quot;:0,&quot;firstGlyphOfWord&quot;:true,&quot;word&quot;:1}"></path><path d="M200.50578,336.54084h-17.1687c-0.27022,0 -0.52114,-0.04825 -0.75276,-0.14476c-0.23162,-0.09651 -0.43187,-0.22921 -0.60076,-0.39809c-0.16889,-0.16889 -0.30159,-0.36914 -0.39809,-0.60076c-0.09651,-0.23162 -0.14476,-0.48254 -0.14476,-0.75276v-18.86241h3.7638v16.99499h15.30128z" data-paper-data="{&quot;glyphName&quot;:&quot;L&quot;,&quot;glyphIndex&quot;:1,&quot;word&quot;:1}"></path><path d="M223.98608,327.85516c0,1.26425 -0.21955,2.42717 -0.65866,3.48875c-0.43911,1.06158 -1.04469,1.97599 -1.81676,2.74323c-0.77206,0.76724 -1.68888,1.368 -2.75047,1.80228c-1.06158,0.43428 -2.21485,0.65143 -3.4598,0.65143h-10.16225c-0.27022,0 -0.52114,-0.04825 -0.75276,-0.14476c-0.23162,-0.09651 -0.43187,-0.22921 -0.60076,-0.39809c-0.16889,-0.16889 -0.30159,-0.36914 -0.39809,-0.60076c-0.09651,-0.23162 -0.14476,-0.48254 -0.14476,-0.75276v-16.96604c0,-0.26057 0.04825,-0.50666 0.14476,-0.73828c0.09651,-0.23162 0.22921,-0.43428 0.39809,-0.608c0.16889,-0.17371 0.36914,-0.30882 0.60076,-0.40533c0.23162,-0.09651 0.48254,-0.14476 0.75276,-0.14476h10.16225c1.24495,0 2.39821,0.21714 3.4598,0.65143c1.06158,0.43428 1.97841,1.03504 2.75047,1.80228c0.77206,0.76724 1.37765,1.68406 1.81676,2.75047c0.43911,1.06641 0.65866,2.22691 0.65866,3.48151zM220.22228,324.46774c0,-0.73346 -0.11822,-1.40419 -0.35467,-2.01218c-0.23644,-0.608 -0.57181,-1.12673 -1.00609,-1.55619c-0.43428,-0.42946 -0.95301,-0.76241 -1.55619,-0.99885c-0.60317,-0.23644 -1.27149,-0.35467 -2.00495,-0.35467h-8.29483v13.23119h8.29483c0.73346,0 1.40177,-0.11822 2.00495,-0.35467c0.60317,-0.23644 1.1219,-0.56939 1.55619,-0.99885c0.43428,-0.42946 0.76965,-0.94577 1.00609,-1.54895c0.23644,-0.60317 0.35467,-1.27631 0.35467,-2.01942z" data-paper-data="{&quot;glyphName&quot;:&quot;D&quot;,&quot;glyphIndex&quot;:2,&quot;word&quot;:1}"></path><path d="M248.39285,331.98086c0,0.46324 -0.07962,0.96025 -0.23886,1.49104c-0.15924,0.53079 -0.41981,1.02298 -0.78171,1.47657c-0.3619,0.45359 -0.83238,0.83238 -1.41142,1.13638c-0.57905,0.304 -1.28838,0.456 -2.12799,0.456h-14.28795c-0.27022,0 -0.52114,-0.04825 -0.75276,-0.14476c-0.23162,-0.09651 -0.43187,-0.22921 -0.60076,-0.39809c-0.16889,-0.16889 -0.30159,-0.36914 -0.39809,-0.60076c-0.09651,-0.23162 -0.14476,-0.48254 -0.14476,-0.75276v-16.96604c0,-0.26057 0.04825,-0.50666 0.14476,-0.73828c0.09651,-0.23162 0.22921,-0.43428 0.39809,-0.608c0.16889,-0.17371 0.36914,-0.30882 0.60076,-0.40533c0.23162,-0.09651 0.48254,-0.14476 0.75276,-0.14476h12.59424c0.46324,0 0.96025,0.08203 1.49104,0.24609c0.53079,0.16406 1.02539,0.42705 1.4838,0.78895c0.45841,0.3619 0.83962,0.83238 1.14362,1.41142c0.304,0.57905 0.456,1.28838 0.456,2.12799v0.70933c0,0.6659 -0.11098,1.38247 -0.33295,2.14971c-0.22197,0.76724 -0.57905,1.49346 -1.07123,2.17866c0.42463,0.26057 0.82273,0.57422 1.19428,0.94095c0.37155,0.36673 0.69727,0.79136 0.97714,1.2739c0.27987,0.48254 0.50184,1.02781 0.6659,1.6358c0.16406,0.608 0.24609,1.27873 0.24609,2.01218zM244.62906,331.25705c0,-0.49219 -0.07721,-0.93371 -0.23162,-1.32457c-0.15441,-0.39086 -0.37155,-0.72622 -0.65143,-1.00609c-0.27987,-0.27987 -0.61765,-0.4946 -1.01333,-0.64419c-0.39568,-0.14959 -0.83962,-0.22438 -1.3318,-0.22438h-8.48302v-3.79275h6.78931c0.49219,0 0.93612,-0.07479 1.3318,-0.22438c0.39568,-0.14959 0.73346,-0.36432 1.01333,-0.64419c0.27987,-0.27987 0.4946,-0.61524 0.64419,-1.00609c0.14959,-0.39086 0.22438,-0.83238 0.22438,-1.32457v-0.70933c0,-0.54044 -0.26057,-0.81066 -0.78171,-0.81066h-10.72682v13.23119h12.42053c0.06756,0 0.14959,-0.00483 0.24609,-0.01448c0.09651,-0.00965 0.18336,-0.0386 0.26057,-0.08686c0.07721,-0.04825 0.14476,-0.13029 0.20267,-0.24609c0.0579,-0.11581 0.08686,-0.27505 0.08686,-0.47771z" data-paper-data="{&quot;glyphName&quot;:&quot;B&quot;,&quot;glyphIndex&quot;:3,&quot;word&quot;:1}"></path><path d="M275.28952,327.85516c0,0.84927 -0.10857,1.65269 -0.32571,2.41028c-0.21714,0.75758 -0.52355,1.45968 -0.91923,2.10628c-0.39568,0.6466 -0.86374,1.22565 -1.40419,1.73714c-0.54044,0.51149 -1.13155,0.94819 -1.77333,1.31009c-0.64178,0.3619 -1.32457,0.63936 -2.04837,0.83238c-0.72381,0.19302 -1.46209,0.28952 -2.21485,0.28952h-6.78931c-0.76241,0 -1.50552,-0.09651 -2.22933,-0.28952c-0.72381,-0.19302 -1.4066,-0.47047 -2.04837,-0.83238c-0.64178,-0.3619 -1.23288,-0.7986 -1.77333,-1.31009c-0.54044,-0.51149 -1.00609,-1.09054 -1.39695,-1.73714c-0.39086,-0.6466 -0.69485,-1.34869 -0.912,-2.10628c-0.21714,-0.75758 -0.32571,-1.56101 -0.32571,-2.41028v-3.38742c0,-1.2739 0.23886,-2.44164 0.71657,-3.50323c0.47771,-1.06158 1.11708,-1.97599 1.91809,-2.74323c0.80101,-0.76724 1.72507,-1.36558 2.77218,-1.79504c1.04711,-0.42946 2.14006,-0.64419 3.27885,-0.64419h6.78931c0.75276,0 1.49104,0.09651 2.21485,0.28952c0.72381,0.19302 1.4066,0.47047 2.04837,0.83238c0.64178,0.3619 1.23288,0.7986 1.77333,1.31009c0.54044,0.51149 1.0085,1.09054 1.40419,1.73714c0.39568,0.6466 0.70209,1.34869 0.91923,2.10628c0.21714,0.75758 0.32571,1.56101 0.32571,2.41028zM271.49677,324.46774c0,-0.74311 -0.13511,-1.41866 -0.40533,-2.02666c-0.27022,-0.608 -0.62971,-1.12914 -1.07847,-1.56342c-0.44876,-0.43428 -0.96749,-0.76724 -1.55619,-0.99885c-0.5887,-0.23162 -1.20635,-0.3426 -1.85295,-0.33295h-6.78931c-0.6273,-0.00965 -1.23771,0.09892 -1.83123,0.32571c-0.59352,0.22679 -1.11949,0.55492 -1.5779,0.98438c-0.45841,0.42946 -0.82514,0.9506 -1.10019,1.56342c-0.27505,0.61282 -0.41257,1.29561 -0.41257,2.04837v3.38742c0,0.75276 0.13511,1.43314 0.40533,2.04114c0.27022,0.608 0.63212,1.12673 1.08571,1.55619c0.45359,0.42946 0.97714,0.76 1.57066,0.99162c0.59352,0.23162 1.21358,0.3426 1.86018,0.33295h6.78931c0.74311,0 1.41625,-0.12305 2.01942,-0.36914c0.60317,-0.24609 1.11708,-0.58628 1.54171,-1.02057c0.42463,-0.43428 0.75276,-0.95301 0.98438,-1.55619c0.23162,-0.60317 0.34743,-1.26184 0.34743,-1.97599zM269.86097,321.71727c0.14476,0.21232 0.24127,0.44152 0.28952,0.68762c0.04825,0.24609 0.04825,0.48736 0,0.72381c-0.04825,0.23644 -0.14235,0.45841 -0.28228,0.6659c-0.13994,0.20749 -0.32089,0.38362 -0.54286,0.52838l-10.16225,6.78931c-0.16406,0.12546 -0.33295,0.21232 -0.50666,0.26057c-0.17371,0.04825 -0.35225,0.07238 -0.53562,0.07238c-0.30882,0 -0.60317,-0.07238 -0.88304,-0.21714c-0.27987,-0.14476 -0.50666,-0.35225 -0.68038,-0.62247c-0.14476,-0.21232 -0.24127,-0.44152 -0.28952,-0.68762c-0.04825,-0.24609 -0.05067,-0.48736 -0.00724,-0.72381c0.04343,-0.23644 0.1327,-0.45841 0.26781,-0.6659c0.13511,-0.20749 0.31365,-0.38362 0.53562,-0.52838l10.1912,-6.78931c0.21232,-0.14476 0.44152,-0.24127 0.68762,-0.28952c0.24609,-0.04825 0.48736,-0.04825 0.72381,0c0.23644,0.04825 0.45841,0.13994 0.6659,0.27505c0.20749,0.13511 0.38362,0.30882 0.52838,0.52114z" data-paper-data="{&quot;glyphName&quot;:&quot;0&quot;,&quot;glyphIndex&quot;:4,&quot;word&quot;:1}"></path><path d="M298.87116,322.7306c0,0.85892 -0.10857,1.62615 -0.32571,2.30171c-0.21714,0.67555 -0.50425,1.27149 -0.86133,1.7878c-0.35708,0.51632 -0.77447,0.95784 -1.25219,1.32457c-0.47771,0.36673 -0.97231,0.66832 -1.4838,0.90476c-0.51149,0.23644 -1.03022,0.40774 -1.55619,0.5139c-0.52597,0.10616 -1.02057,0.15924 -1.4838,0.15924h-1.51999v6.81826h-3.79275v-6.81826h-1.50552c-0.46324,0 -0.95784,-0.05308 -1.4838,-0.15924c-0.52597,-0.10616 -1.04711,-0.27746 -1.56342,-0.5139c-0.51632,-0.23644 -1.01092,-0.53803 -1.4838,-0.90476c-0.47289,-0.36673 -0.89028,-0.80825 -1.25219,-1.32457c-0.3619,-0.51632 -0.65143,-1.11466 -0.86857,-1.79504c-0.21714,-0.68038 -0.32571,-1.4452 -0.32571,-2.29447v-6.94855h3.7638v6.94855c0,0.49219 0.07721,0.93371 0.23162,1.32457c0.15441,0.39086 0.37155,0.72622 0.65143,1.00609c0.27987,0.27987 0.62006,0.4946 1.02057,0.64419c0.40051,0.14959 0.84685,0.22438 1.33904,0.22438h6.78931c0.35708,-0.0579 0.72381,-0.1327 1.10019,-0.22438c0.37638,-0.09168 0.71898,-0.24851 1.02781,-0.47047c0.30882,-0.22197 0.56457,-0.53079 0.76724,-0.92647c0.20267,-0.39568 0.304,-0.92165 0.304,-1.5779v-6.94855h3.7638z" data-paper-data="{&quot;glyphName&quot;:&quot;Y&quot;,&quot;glyphIndex&quot;:5,&quot;word&quot;:1}"></path><path d="M320.70118,336.54084h-3.79275v-8.48302h-13.37595c-0.27022,0 -0.52114,-0.05067 -0.75276,-0.152c-0.23162,-0.10133 -0.43187,-0.23644 -0.60076,-0.40533c-0.16889,-0.16889 -0.30159,-0.36914 -0.39809,-0.60076c-0.09651,-0.23162 -0.14476,-0.47771 -0.14476,-0.73828v-10.37939h3.7638v8.48302h11.50853v-8.48302h3.79275z" data-paper-data="{&quot;glyphName&quot;:&quot;4&quot;,&quot;glyphIndex&quot;:6,&quot;word&quot;:1}"></path><path d="M344.25386,336.54084h-17.1687c-0.27022,0 -0.52114,-0.04825 -0.75276,-0.14476c-0.23162,-0.09651 -0.43187,-0.22921 -0.60076,-0.39809c-0.16889,-0.16889 -0.30159,-0.36914 -0.39809,-0.60076c-0.09651,-0.23162 -0.14476,-0.48254 -0.14476,-0.75276v-18.86241h3.7638v16.99499h15.30128z" data-paper-data="{&quot;glyphName&quot;:&quot;L&quot;,&quot;glyphIndex&quot;:7,&quot;word&quot;:1}"></path><path d="M353.04087,336.54084h-3.77827v-16.99499h-3.40189v-3.7638h7.18017z" data-paper-data="{&quot;glyphName&quot;:&quot;1&quot;,&quot;glyphIndex&quot;:8,&quot;word&quot;:1}"></path><path d="M374.69718,328.05782h-11.89939v-3.79275h11.89939zM376.37641,319.54585h-15.08414v16.99499h-3.7638v-18.86241c0,-0.26057 0.04825,-0.50666 0.14476,-0.73828c0.09651,-0.23162 0.22921,-0.43428 0.39809,-0.608c0.16889,-0.17371 0.36914,-0.30882 0.60076,-0.40533c0.23162,-0.09651 0.48254,-0.14476 0.75276,-0.14476h16.95156z" data-paper-data="{&quot;glyphName&quot;:&quot;F&quot;,&quot;glyphIndex&quot;:9,&quot;word&quot;:1}"></path><path d="M396.5272,331.25705c0,0.97473 -0.17613,1.79745 -0.52838,2.46818c-0.35225,0.67073 -0.79136,1.216 -1.31733,1.6358c-0.52597,0.41981 -1.09777,0.72139 -1.71542,0.90476c-0.61765,0.18336 -1.19187,0.27505 -1.72266,0.27505h-12.0731v-3.7638h12.0731c0.51149,0 0.89028,-0.13029 1.13638,-0.39086c0.24609,-0.26057 0.36914,-0.63695 0.36914,-1.12914v-3.19923h-13.57862v-3.79275h13.57862v-3.17027c0,-1.03263 -0.50184,-1.54895 -1.50552,-1.54895h-12.0731v-3.7638h12.0731c0.6466,0 1.22565,0.08203 1.73714,0.24609c0.51149,0.16406 0.96266,0.38362 1.35352,0.65866c0.39086,0.27505 0.72622,0.59111 1.00609,0.94819c0.27987,0.35708 0.50666,0.73105 0.68038,1.1219c0.17371,0.39086 0.30159,0.78654 0.38362,1.18704c0.08203,0.40051 0.12305,0.77447 0.12305,1.1219z" data-paper-data="{&quot;glyphName&quot;:&quot;3&quot;,&quot;glyphIndex&quot;:10,&quot;lastGlyphOfWord&quot;:true,&quot;word&quot;:1}"></path></g><g data-paper-data="{&quot;fillRule&quot;:&quot;evenodd&quot;,&quot;fillRuleOriginal&quot;:&quot;evenodd&quot;,&quot;isIcon&quot;:true,&quot;iconStyle&quot;:&quot;standalone&quot;,&quot;selectedEffects&quot;:{&quot;container&quot;:&quot;&quot;,&quot;transformation&quot;:&quot;&quot;,&quot;pattern&quot;:&quot;&quot;},&quot;bounds&quot;:{&quot;x&quot;:180.650995000044,&quot;y&quot;:115.00000000000001,&quot;width&quot;:188.698009999912,&quot;height&quot;:188.69800999991202},&quot;widthRatioIconToContainer&quot;:0.6162075972613539,&quot;heightRatioIconToContainer&quot;:0.6162075972613539,&quot;relativeBoundsIconToContainer&quot;:{&quot;top&quot;:9.043473975454057e-17,&quot;left&quot;:6.028982650302706e-17},&quot;iconType&quot;:&quot;icon&quot;,&quot;rawIconId&quot;:&quot;3592574&quot;,&quot;isDetailed&quot;:false,&quot;suitableAsStandaloneIcon&quot;:true}" fill-rule="evenodd"><path d="M365.17569,237.18883c-13.41805,4.35823 -28.1832,10.32768 -44.66522,17.74987c-62.72994,28.24686 -95.87835,-3.81278 -96.37704,-4.32548c19.76152,21.47206 72.29294,43.9959 125.06209,17.00396c-5.22987,6.6562 -11.30497,12.57283 -18.11966,17.6178c-33.41307,7.68633 -54.57029,-0.42262 -54.57029,-0.42262c8.26743,4.5167 21.97602,9.35037 41.78615,8.37308c-12.96903,6.70903 -27.68135,10.51257 -43.29172,10.51257c-52.11382,0 -94.349,-42.23518 -94.349,-94.349c0,-52.11382 42.23518,-94.349 94.349,-94.349c52.11382,0 94.349,42.23518 94.349,94.349c0,9.69376 -1.45274,19.04413 -4.17333,27.83983zM271.03799,135.20632c-34.8394,0 -63.10184,28.28885 -63.10184,63.12825c0,34.86582 28.26244,63.12825 63.10184,63.18108c12.7049,0 24.53814,-3.75071 34.4432,-10.24843c-5.99586,2.1659 -12.49358,3.38093 -19.28185,3.38093c-31.08869,0 -56.28715,-25.19848 -56.28715,-56.28715c0,-31.08869 25.19848,-56.28715 56.28715,-56.28715c6.78827,0 13.28599,1.18861 19.28185,3.38093c-9.90506,-6.49772 -21.7383,-10.24843 -34.4432,-10.24843zM324.15553,221.60487c4.78084,-7.26371 7.52784,-15.95375 7.52784,-25.27771c0,-25.56826 -20.76101,-46.32927 -46.35569,-46.32927c-25.6211,0 -46.35569,20.73459 -46.35569,46.32927c0,9.32396 2.747,18.01401 7.52784,25.27771c-1.58481,-4.41105 -2.48287,-9.1919 -2.48287,-14.15763c0,-22.82126 18.48944,-41.3107 41.3107,-41.3107c22.82126,0 41.3107,18.48944 41.3107,41.3107c0,4.99215 -0.87164,9.74658 -2.48287,14.15763z" data-paper-data="{&quot;isPathIcon&quot;:true}"></path></g></g></g></svg>